<svg width="14" height="25" viewBox="0 0 14 25" fill="none" xmlns="http://www.w3.org/2000/svg">
<path d="M6.1579 0.0144062C4.63695 0.232376 3.87647 0.493942 2.92224 1.13332C1.75005 1.90833 0.669881 3.23069 0.146751 4.50945C-0.0130937 4.89695 -0.0227813 4.95992 0.0256566 5.11977C0.0547194 5.21664 0.127376 5.34258 0.185502 5.39587C0.248471 5.45399 0.897539 5.76884 1.62895 6.09337C3.45991 6.90713 3.45991 6.90713 3.91522 6.02556C4.17679 5.51696 4.68539 4.81945 5.00992 4.52882C5.50883 4.07835 6.22571 3.87976 7.17509 3.92335C8.13417 3.96694 8.72511 4.20914 9.24339 4.77102C9.88762 5.47821 10.0765 6.55353 9.72777 7.56104C9.46621 8.32636 8.80745 9.15465 7.41728 10.4722C5.45555 12.3322 5.03414 13.2331 4.89367 15.8536C4.85492 16.5753 4.90336 16.7497 5.17945 16.9144C5.32477 17.0064 5.43133 17.0113 7.02978 17.0113C8.57495 17.0113 8.73964 17.0016 8.88495 16.9241C9.11261 16.7982 9.16589 16.6189 9.20464 15.8972C9.26761 14.662 9.41777 14.1244 9.89246 13.4995C10.0232 13.33 10.5754 12.7294 11.1228 12.1675C12.4694 10.787 12.9247 10.2106 13.3703 9.29997C13.8159 8.39902 14 7.56589 14 6.45181C13.9952 4.6257 13.3945 3.13866 12.14 1.87442C11.1954 0.920197 10.0572 0.363159 8.53136 0.101595C8.11479 0.0337811 6.46306 -0.0291882 6.1579 0.0144062Z" fill="#4E9FFF"/>
<path d="M6.279 19.3413C5.78009 19.472 5.40712 19.69 5.01962 20.0824C4.59821 20.5086 4.42867 20.7992 4.29305 21.3272C4.04601 22.296 4.29789 23.2357 5.00024 23.9477C5.84306 24.8099 7.10245 25.023 8.20199 24.4854C8.64762 24.2722 9.19981 23.7152 9.41294 23.2793C9.9506 22.1797 9.77138 20.993 8.93825 20.1114C8.38605 19.535 7.74183 19.2638 6.93292 19.2686C6.71979 19.2686 6.42432 19.3025 6.279 19.3413Z" fill="#4E9FFF"/>
</svg>
