<svg width="30" height="30" viewBox="0 0 30 30" fill="none" xmlns="http://www.w3.org/2000/svg">
<path d="M8.4411 0.229599C4.47413 1.21716 1.15995 4.59829 0.222611 8.59874C-0.162369 10.2223 -0.0284627 13.2018 0.473686 14.6915C1.61189 18.0224 4.35696 20.7675 7.68788 21.9057C9.16085 22.4078 12.157 22.5417 13.7471 22.1567C15.0527 21.8554 16.7098 21.1022 17.6472 20.3992L18.3167 19.8971L23.3716 24.9353C27.8408 29.3877 28.4768 29.9735 28.9455 29.9735C29.615 29.9735 30 29.5885 30 28.919C30 28.4503 29.4142 27.7975 24.9618 23.3452L19.9236 18.2902L20.342 17.788C20.9948 16.9846 21.8819 15.043 22.1832 13.7709C22.5682 12.1305 22.4343 9.1511 21.9322 7.66139C20.7939 4.33048 18.0489 1.5854 14.718 0.447197C13.2952 -0.0382137 9.96429 -0.15538 8.4411 0.229599ZM13.0776 2.32188C17.1617 3.17554 20.2416 6.97512 20.2416 11.1764C20.2416 16.131 16.1574 20.2151 11.2029 20.2151C6.21491 20.2151 2.14751 16.131 2.16425 11.1262C2.16425 8.73264 3.08486 6.5734 4.84237 4.79915C6.98487 2.63991 10.0815 1.70257 13.0776 2.32188Z" fill="#1F2937" fill-opacity="0.5"/>
</svg>
